<svg width="41" height="41" viewBox="0 0 41 41" fill="none" xmlns="http://www.w3.org/2000/svg">
<path d="M28.5906 6.07655V3.41379C28.5906 2.71397 28.0102 2.13362 27.3104 2.13362C26.6106 2.13362 26.0302 2.71397 26.0302 3.41379V5.97414H14.9354V3.41379C14.9354 2.71397 14.355 2.13362 13.6552 2.13362C12.9554 2.13362 12.375 2.71397 12.375 3.41379V6.07655C7.76642 6.50328 5.53038 9.25138 5.189 13.3309C5.15487 13.8259 5.56452 14.2355 6.04245 14.2355H34.9231C35.4181 14.2355 35.8278 13.8088 35.7766 13.3309C35.4352 9.25138 33.1992 6.50328 28.5906 6.07655Z" fill="white"/>
<path opacity="0.4" d="M35.8449 18.4993V21.4693C35.8449 22.5105 34.9231 23.3128 33.899 23.1421C33.4211 23.0738 32.9261 23.0226 32.4311 23.0226C29.9426 23.0271 27.5574 24.0177 25.7978 25.7773C24.0382 27.5369 23.0477 29.9221 23.0431 32.4106C23.0431 33.1957 23.3504 34.2881 23.6747 35.2781C23.7624 35.5353 23.7872 35.8097 23.7473 36.0784C23.7073 36.3471 23.6037 36.6024 23.445 36.8229C23.2863 37.0434 23.0771 37.2227 22.835 37.3459C22.5929 37.4692 22.3248 37.5327 22.0531 37.5312H13.6552C7.68107 37.5312 5.12073 34.1174 5.12073 28.9968V18.4823C5.12073 17.5435 5.88883 16.7754 6.82762 16.7754H34.138C35.0768 16.7924 35.8449 17.5605 35.8449 18.4993Z" fill="white"/>
<path d="M14.5087 25.6035C14.0649 25.6035 13.6211 25.4157 13.2968 25.1085C12.9895 24.7841 12.8018 24.3403 12.8018 23.8966C12.8018 23.4528 12.9895 23.009 13.2968 22.6847C13.6893 22.2921 14.2868 22.1043 14.85 22.2238C14.9524 22.2409 15.0549 22.275 15.1573 22.3262C15.2597 22.3603 15.3621 22.4116 15.4645 22.4798L15.7206 22.6847C16.0278 23.009 16.2156 23.4528 16.2156 23.8966C16.2156 24.3403 16.0278 24.7841 15.7206 25.1085L15.4645 25.3133C15.3621 25.3816 15.2597 25.4328 15.1573 25.4669C15.0549 25.5181 14.9524 25.5522 14.85 25.5693C14.7306 25.5864 14.6111 25.6035 14.5087 25.6035ZM20.4828 25.6035C20.039 25.6035 19.5952 25.4157 19.2709 25.1085C18.9637 24.7841 18.7759 24.3403 18.7759 23.8966C18.7759 23.4528 18.9637 23.009 19.2709 22.6847C19.9195 22.0531 21.0631 22.0531 21.6947 22.6847C22.0019 23.009 22.1897 23.4528 22.1897 23.8966C22.1897 24.3403 22.0019 24.7841 21.6947 25.1085C21.3704 25.4157 20.9266 25.6035 20.4828 25.6035ZM14.5087 31.5759C14.0649 31.5759 13.6211 31.3881 13.2968 31.0809C12.9895 30.7566 12.8018 30.3128 12.8018 29.869C12.8018 29.4252 12.9895 28.9814 13.2968 28.6571C13.4674 28.5035 13.6381 28.384 13.86 28.2986C14.4916 28.0255 15.2426 28.1792 15.7206 28.6571C16.0278 28.9814 16.2156 29.4252 16.2156 29.869C16.2156 30.3128 16.0278 30.7566 15.7206 31.0809C15.3962 31.3881 14.9524 31.5759 14.5087 31.5759ZM37.2616 27.6005C35.9792 26.3218 34.2421 25.6037 32.4311 25.6037C30.6201 25.6037 28.883 26.3218 27.6006 27.6005C26.3218 28.8829 25.6038 30.62 25.6038 32.431C25.6038 34.242 26.3218 35.9791 27.6006 37.2616C28.883 38.5403 30.6201 39.2583 32.4311 39.2583C34.2421 39.2583 35.9792 38.5403 37.2616 37.2616C38.5403 35.9791 39.2584 34.242 39.2584 32.431C39.2584 30.62 38.5403 28.8829 37.2616 27.6005ZM35.9643 33.3869C35.7425 33.6259 35.4181 33.7624 35.0597 33.7624H33.7966V35.0938C33.7966 35.4522 33.66 35.7595 33.4211 35.9985C33.1821 36.2374 32.8749 36.374 32.5164 36.374C31.8166 36.374 31.2362 35.7936 31.2362 35.0938V33.7624H29.9561C29.6165 33.7624 29.2909 33.6275 29.0509 33.3875C28.8108 33.1474 28.6759 32.8218 28.6759 32.4822C28.6759 32.1427 28.8108 31.8171 29.0509 31.577C29.2909 31.3369 29.6165 31.2021 29.9561 31.2021H31.2362V29.9902C31.2362 29.6507 31.3711 29.325 31.6112 29.085C31.8513 28.8449 32.1769 28.71 32.5164 28.71C32.8559 28.71 33.1816 28.8449 33.4216 29.085C33.6617 29.325 33.7966 29.6507 33.7966 29.9902V31.2021H35.0597C35.7766 31.2021 36.3399 31.7824 36.3399 32.4822C36.3399 32.8407 36.2033 33.165 35.9643 33.3869Z" fill="white"/>
</svg>
